<svg xmlns="http://www.w3.org/2000/svg" width="18.919" height="23.649" viewBox="0 0 18.919 23.649">
  <g id="Icon_ionic-ios-copy" data-name="Icon ionic-ios-copy" transform="translate(-4.5 -1.125)">
    <path id="Path_241" data-name="Path 241" d="M24.348,6h4.434a.3.3,0,0,0,.3-.3h0a1.375,1.375,0,0,0-.493-1.049L24.787,1.5a1.843,1.843,0,0,0-1.015-.365h0a.364.364,0,0,0-.365.365V5.069A.943.943,0,0,0,24.348,6Z" transform="translate(-5.659 -0.002)" fill="#134783"/>
    <path id="Path_242" data-name="Path 242" d="M18.156,5.066V1.125H11.7A1.581,1.581,0,0,0,10.125,2.7V19.256A1.581,1.581,0,0,0,11.7,20.832H23.526A1.581,1.581,0,0,0,25.1,19.256V7.283h-4.73A2.22,2.22,0,0,1,18.156,5.066Z" transform="translate(-1.684)" fill="#134783"/>
    <path id="Path_243" data-name="Path 243" d="M7.062,21.982V5.625H6.077A1.581,1.581,0,0,0,4.5,7.2V24.544A1.581,1.581,0,0,0,6.077,26.12H18.689a1.581,1.581,0,0,0,1.577-1.577v-.985H8.638A1.581,1.581,0,0,1,7.062,21.982Z" transform="translate(0 -1.347)" fill="#134783"/>
  </g>
</svg>
